<svg width="24" height="24" viewBox="0 0 24 24" fill="none" xmlns="http://www.w3.org/2000/svg">
<path fill-rule="evenodd" clip-rule="evenodd" d="M20.6193 7.93867C20.5376 7.82051 20.4284 7.72393 20.3011 7.65721C20.1739 7.59049 20.0323 7.55561 19.8886 7.55556H7.7402L6.71442 5.09334C6.57992 4.76909 6.35217 4.49208 6.06004 4.29744C5.76792 4.10279 5.42457 3.99927 5.07353 4H2.99976V5.77778H5.07353L9.29042 15.8978C9.35797 16.0597 9.47191 16.198 9.61791 16.2953C9.76391 16.3926 9.93543 16.4445 10.1109 16.4444H17.222C17.5926 16.4444 17.9242 16.2142 18.0549 15.8684L20.7215 8.75734C20.7719 8.62278 20.789 8.47801 20.7712 8.33543C20.7534 8.19285 20.7013 8.05671 20.6193 7.93867ZM10.5553 20C11.2917 20 11.8886 19.403 11.8886 18.6667C11.8886 17.9303 11.2917 17.3333 10.5553 17.3333C9.81893 17.3333 9.22198 17.9303 9.22198 18.6667C9.22198 19.403 9.81893 20 10.5553 20ZM18.1109 18.6667C18.1109 19.403 17.5139 20 16.7775 20C16.0412 20 15.4442 19.403 15.4442 18.6667C15.4442 17.9303 16.0412 17.3333 16.7775 17.3333C17.5139 17.3333 18.1109 17.9303 18.1109 18.6667Z" fill="#111111"/>
</svg>
