<svg width="24" height="24" viewBox="0 0 24 24" fill="none" xmlns="http://www.w3.org/2000/svg">
<path d="M16.4073 20H17.6145C18.2255 20 18.7273 19.5273 18.8 18.9309L20 6.94545H16.3636V4H14.9309V6.94545H11.3164L11.5345 8.64727C12.7782 8.98909 13.9418 9.60727 14.64 10.2909C15.6873 11.3236 16.4073 12.3927 16.4073 14.1382V20ZM4 19.2727V18.5455H14.9309V19.2727C14.9309 19.6655 14.6036 20 14.1818 20H4.72727C4.32727 20 4 19.6655 4 19.2727ZM14.9309 14.1818C14.9309 8.36364 4 8.36364 4 14.1818H14.9309ZM4 15.6364H14.9091V17.0909H4V15.6364Z" fill="#111111"/>
</svg>
