<svg width="24" height="24" viewBox="0 0 24 24" fill="none" xmlns="http://www.w3.org/2000/svg">
<path d="M19.016 5.30947C19.1006 5.18265 19.1492 5.03524 19.1566 4.88296C19.164 4.73068 19.1299 4.57925 19.058 4.44483C18.9861 4.3104 18.879 4.19803 18.7482 4.11968C18.6174 4.04134 18.4678 3.99998 18.3154 4H4.84167C4.68935 4.00008 4.5399 4.04147 4.40924 4.11977C4.27858 4.19807 4.1716 4.31034 4.09971 4.44463C4.02781 4.57892 3.99368 4.73019 4.00096 4.88234C4.00824 5.03449 4.05665 5.18182 4.14104 5.30863L10.7364 15.2025V18.3158H8.21009V20H14.9469V18.3158H12.4206V15.2025L19.016 5.30947ZM16.7423 5.68421L15.0581 8.21053H8.09893L6.41472 5.68421H16.7423Z" fill="#111111"/>
</svg>
