<svg width="24" height="24" viewBox="0 0 24 24" fill="none" xmlns="http://www.w3.org/2000/svg">
<path d="M15.9 4H8.8968C8.7176 4 7.7776 4.052 6.8944 5.0808C6.0248 6.0928 6 7.0896 6 7.2V16C6 16.4243 6.16857 16.8313 6.46863 17.1314C6.76869 17.4314 7.17565 17.6 7.6 17.6H8.4L6.8 20H8.6824L9.216 19.2H15.616L16.1576 20H18L16.4 17.6H17.2C17.6243 17.6 18.0313 17.4314 18.3314 17.1314C18.6314 16.8313 18.8 16.4243 18.8 16V7.2C18.8008 7.0496 18.7744 6.0528 17.8968 5.068C16.972 4.0296 16.0072 4 15.9 4ZM10.8 5.6H14V7.2H10.8V5.6ZM8.8 16C8.48163 15.9999 8.17635 15.8733 7.95131 15.6481C7.72626 15.4229 7.59989 15.1176 7.6 14.7992C7.60011 14.4808 7.72668 14.1755 7.95187 13.9505C8.17707 13.7255 8.48243 13.5991 8.8008 13.5992C9.11917 13.5993 9.42445 13.7259 9.64949 13.9511C9.87454 14.1763 10.0009 14.4816 10.0008 14.8C10.0007 15.1184 9.87412 15.4237 9.64893 15.6487C9.42373 15.8737 9.11837 16.0001 8.8 16ZM16 16C15.6816 15.9999 15.3764 15.8733 15.1513 15.6481C14.9263 15.4229 14.7999 15.1176 14.8 14.7992C14.8001 14.4808 14.9267 14.1755 15.1519 13.9505C15.3771 13.7255 15.6824 13.5991 16.0008 13.5992C16.3192 13.5993 16.6244 13.7259 16.8495 13.9511C17.0745 14.1763 17.2009 14.4816 17.2008 14.8C17.2007 15.1184 17.0741 15.4237 16.8489 15.6487C16.6237 15.8737 16.3184 16.0001 16 16ZM17.2 12H7.6V8.8H17.2V12Z" fill="#111111"/>
</svg>
