<svg width="24" height="24" viewBox="0 0 24 24" fill="none" xmlns="http://www.w3.org/2000/svg">
<path d="M16 16C16 14.8954 12.866 14 9 14M16 16C16 17.1046 12.866 18 9 18C5.13401 18 2 17.1046 2 16M16 16V20.9368C16 22.0763 12.866 23 9 23C5.13401 23 2 22.0763 2 20.9368V16M16 16C19.8235 16 23 15.0129 23 14V4M9 14C5.13401 14 2 14.8954 2 16M9 14C4.58172 14 1 13.0129 1 12V7M9 5C4.58172 5 1 5.89543 1 7M1 7C1 8.10457 4.58172 9 9 9C9 10.0129 12.2534 11 16.0769 11C19.9004 11 23 10.0129 23 9M23 4C23 2.89543 19.9004 2 16.0769 2C12.2534 2 9.15385 2.89543 9.15385 4M23 4C23 5.10457 19.9004 6 16.0769 6C12.2534 6 9.15385 5.10457 9.15385 4M9.15385 4V14.166" stroke="#111111" stroke-width="2"/>
</svg>
