<svg width="24" height="24" viewBox="0 0 24 24" fill="none" xmlns="http://www.w3.org/2000/svg">
<path d="M12 11.5199C11.28 11.5199 10.8 11.9999 10.8 12.7199C10.8 13.1999 11.16 13.5599 11.52 13.6799L11.16 15.3599H12.72L12.36 13.6799C12.84 13.5599 13.08 13.1999 13.08 12.7199C13.2 11.9999 12.72 11.5199 12 11.5199ZM12.12 6.3599C11.28 6.3599 10.44 6.9599 10.44 7.7999V9.5999H13.68V7.7999C13.56 6.9599 12.96 6.3599 12.12 6.3599ZM12 2.3999L3.59998 5.9999V9.5999C3.71998 14.8799 7.07998 19.5599 12 21.4799C16.92 19.5599 20.28 14.8799 20.4 9.5999V5.9999L12 2.3999ZM16.8 15.5999C16.8 16.3199 16.32 16.7999 15.6 16.7999H8.39998C7.67998 16.7999 7.19998 16.3199 7.19998 15.5999V10.7999C7.19998 10.0799 7.67998 9.5999 8.39998 9.5999H8.75998V7.7999C8.87998 6.1199 10.32 4.7999 12 4.7999C13.68 4.7999 15.12 6.1199 15.24 7.7999V9.5999H15.6C16.32 9.5999 16.8 10.0799 16.8 10.7999V15.5999Z" fill="#111111"/>
</svg>
